<svg width="364" height="95" viewBox="0 0 364 95" fill="none" xmlns="http://www.w3.org/2000/svg">
<path d="M59.45 65.6125C59.45 66.1075 59.8325 66.5125 60.2937 66.5125H81.1062C81.5675 66.5125 81.95 66.1075 81.95 65.6125V60.2125C81.95 59.7175 81.5675 59.3125 81.1062 59.3125H60.2937C59.8325 59.3125 59.45 59.7175 59.45 60.2125V65.6125ZM37.5237 66.2987L59.1237 48.1862C59.5512 47.8262 59.5512 47.1625 59.1237 46.8025L37.5237 28.7012C37.3933 28.5904 37.2339 28.5192 37.0643 28.4963C36.8946 28.4733 36.722 28.4996 36.5668 28.5718C36.4116 28.6441 36.2805 28.7593 36.1889 28.9039C36.0972 29.0485 36.0491 29.2163 36.05 29.3875V36.4412C36.05 36.7112 36.1625 36.9587 36.3762 37.1275L48.7287 47.5L36.3762 57.8725C36.2757 57.9567 36.1945 58.0615 36.1382 58.1801C36.0819 58.2984 36.0518 58.4276 36.05 58.5587V65.6125C36.05 66.3775 36.9387 66.7937 37.5237 66.2987ZM100.4 2.5H17.6C15.6088 2.5 14 4.10875 14 6.1V88.9C14 90.8912 15.6088 92.5 17.6 92.5H100.4C102.391 92.5 104 90.8912 104 88.9V6.1C104 4.10875 102.391 2.5 100.4 2.5ZM95.9 84.4H22.1V10.6H95.9V84.4Z" fill="#FF651C"/>
<path d="M158.656 41.652C158.656 43.604 158.208 45.396 157.312 47.028C156.416 48.628 155.04 49.924 153.184 50.916C151.328 51.908 149.024 52.404 146.272 52.404H141.184V64.5H132.976V30.804H146.272C148.96 30.804 151.232 31.268 153.088 32.196C154.944 33.124 156.336 34.404 157.264 36.036C158.192 37.668 158.656 39.54 158.656 41.652ZM145.648 45.876C147.216 45.876 148.384 45.508 149.152 44.772C149.92 44.036 150.304 42.996 150.304 41.652C150.304 40.308 149.92 39.268 149.152 38.532C148.384 37.796 147.216 37.428 145.648 37.428H141.184V45.876H145.648ZM181.313 64.5L174.305 51.78H172.337V64.5H164.129V30.804H177.905C180.561 30.804 182.817 31.268 184.673 32.196C186.561 33.124 187.969 34.404 188.897 36.036C189.825 37.636 190.289 39.428 190.289 41.412C190.289 43.652 189.649 45.652 188.369 47.412C187.121 49.172 185.265 50.42 182.801 51.156L190.577 64.5H181.313ZM172.337 45.972H177.425C178.929 45.972 180.049 45.604 180.785 44.868C181.553 44.132 181.937 43.092 181.937 41.748C181.937 40.468 181.553 39.46 180.785 38.724C180.049 37.988 178.929 37.62 177.425 37.62H172.337V45.972ZM217.618 58.548H205.042L203.026 64.5H194.434L206.626 30.804H216.13L228.322 64.5H219.634L217.618 58.548ZM215.506 52.212L211.33 39.876L207.202 52.212H215.506ZM253.632 47.22C255.584 47.636 257.152 48.612 258.336 50.148C259.52 51.652 260.112 53.38 260.112 55.332C260.112 58.148 259.12 60.388 257.136 62.052C255.184 63.684 252.448 64.5 248.928 64.5H233.232V30.804H248.4C251.824 30.804 254.496 31.588 256.416 33.156C258.368 34.724 259.344 36.852 259.344 39.54C259.344 41.524 258.816 43.172 257.76 44.484C256.736 45.796 255.36 46.708 253.632 47.22ZM241.44 44.436H246.816C248.16 44.436 249.184 44.148 249.888 43.572C250.624 42.964 250.992 42.084 250.992 40.932C250.992 39.78 250.624 38.9 249.888 38.292C249.184 37.684 248.16 37.38 246.816 37.38H241.44V44.436ZM247.488 57.876C248.864 57.876 249.92 57.572 250.656 56.964C251.424 56.324 251.808 55.412 251.808 54.228C251.808 53.044 251.408 52.116 250.608 51.444C249.84 50.772 248.768 50.436 247.392 50.436H241.44V57.876H247.488ZM274.281 58.164H285.033V64.5H266.073V30.804H274.281V58.164ZM306.084 64.836C302.916 64.836 300.004 64.1 297.348 62.628C294.724 61.156 292.628 59.108 291.06 56.484C289.524 53.828 288.756 50.852 288.756 47.556C288.756 44.26 289.524 41.3 291.06 38.676C292.628 36.052 294.724 34.004 297.348 32.532C300.004 31.06 302.916 30.324 306.084 30.324C309.252 30.324 312.148 31.06 314.772 32.532C317.428 34.004 319.508 36.052 321.012 38.676C322.548 41.3 323.316 44.26 323.316 47.556C323.316 50.852 322.548 53.828 321.012 56.484C319.476 59.108 317.396 61.156 314.772 62.628C312.148 64.1 309.252 64.836 306.084 64.836ZM306.084 57.348C308.772 57.348 310.916 56.452 312.516 54.66C314.148 52.868 314.964 50.5 314.964 47.556C314.964 44.58 314.148 42.212 312.516 40.452C310.916 38.66 308.772 37.764 306.084 37.764C303.364 37.764 301.188 38.644 299.556 40.404C297.956 42.164 297.156 44.548 297.156 47.556C297.156 50.532 297.956 52.916 299.556 54.708C301.188 56.468 303.364 57.348 306.084 57.348ZM351.45 41.46C350.842 40.34 349.962 39.492 348.81 38.916C347.69 38.308 346.362 38.004 344.826 38.004C342.17 38.004 340.042 38.884 338.442 40.644C336.842 42.372 336.042 44.692 336.042 47.604C336.042 50.708 336.874 53.14 338.538 54.9C340.234 56.628 342.554 57.492 345.498 57.492C347.514 57.492 349.21 56.98 350.586 55.956C351.994 54.932 353.018 53.46 353.658 51.54H343.242V45.492H361.098V53.124C360.49 55.172 359.45 57.076 357.978 58.836C356.538 60.596 354.698 62.02 352.458 63.108C350.218 64.196 347.69 64.74 344.874 64.74C341.546 64.74 338.57 64.02 335.946 62.58C333.354 61.108 331.322 59.076 329.85 56.484C328.41 53.892 327.69 50.932 327.69 47.604C327.69 44.276 328.41 41.316 329.85 38.724C331.322 36.1 333.354 34.068 335.946 32.628C338.538 31.156 341.498 30.42 344.826 30.42C348.858 30.42 352.25 31.396 355.002 33.348C357.786 35.3 359.626 38.004 360.522 41.46H351.45Z" fill="#2D3849"/>
</svg>
