<svg width="364" height="96" viewBox="0 0 364 96" fill="none" xmlns="http://www.w3.org/2000/svg">
<path d="M59.45 66.1125C59.45 66.6075 59.8325 67.0125 60.2937 67.0125H81.1062C81.5675 67.0125 81.95 66.6075 81.95 66.1125V60.7125C81.95 60.2175 81.5675 59.8125 81.1062 59.8125H60.2937C59.8325 59.8125 59.45 60.2175 59.45 60.7125V66.1125ZM37.5237 66.7987L59.1237 48.6862C59.5512 48.3262 59.5512 47.6625 59.1237 47.3025L37.5237 29.2012C37.3933 29.0904 37.2339 29.0192 37.0643 28.9963C36.8946 28.9733 36.722 28.9996 36.5668 29.0718C36.4116 29.1441 36.2805 29.2593 36.1889 29.4039C36.0972 29.5485 36.0491 29.7163 36.05 29.8875V36.9412C36.05 37.2112 36.1625 37.4587 36.3762 37.6275L48.7287 48L36.3762 58.3725C36.2757 58.4567 36.1945 58.5615 36.1382 58.6801C36.0819 58.7984 36.0518 58.9276 36.05 59.0587V66.1125C36.05 66.8775 36.9387 67.2937 37.5237 66.7987ZM100.4 3H17.6C15.6088 3 14 4.60875 14 6.6V89.4C14 91.3912 15.6088 93 17.6 93H100.4C102.391 93 104 91.3912 104 89.4V6.6C104 4.60875 102.391 3 100.4 3ZM95.9 84.9H22.1V11.1H95.9V84.9Z" fill="#FF651C"/>
<path d="M158.656 42.152C158.656 44.104 158.208 45.896 157.312 47.528C156.416 49.128 155.04 50.424 153.184 51.416C151.328 52.408 149.024 52.904 146.272 52.904H141.184V65H132.976V31.304H146.272C148.96 31.304 151.232 31.768 153.088 32.696C154.944 33.624 156.336 34.904 157.264 36.536C158.192 38.168 158.656 40.04 158.656 42.152ZM145.648 46.376C147.216 46.376 148.384 46.008 149.152 45.272C149.92 44.536 150.304 43.496 150.304 42.152C150.304 40.808 149.92 39.768 149.152 39.032C148.384 38.296 147.216 37.928 145.648 37.928H141.184V46.376H145.648ZM181.313 65L174.305 52.28H172.337V65H164.129V31.304H177.905C180.561 31.304 182.817 31.768 184.673 32.696C186.561 33.624 187.969 34.904 188.897 36.536C189.825 38.136 190.289 39.928 190.289 41.912C190.289 44.152 189.649 46.152 188.369 47.912C187.121 49.672 185.265 50.92 182.801 51.656L190.577 65H181.313ZM172.337 46.472H177.425C178.929 46.472 180.049 46.104 180.785 45.368C181.553 44.632 181.937 43.592 181.937 42.248C181.937 40.968 181.553 39.96 180.785 39.224C180.049 38.488 178.929 38.12 177.425 38.12H172.337V46.472ZM217.618 59.048H205.042L203.026 65H194.434L206.626 31.304H216.13L228.322 65H219.634L217.618 59.048ZM215.506 52.712L211.33 40.376L207.202 52.712H215.506ZM253.632 47.72C255.584 48.136 257.152 49.112 258.336 50.648C259.52 52.152 260.112 53.88 260.112 55.832C260.112 58.648 259.12 60.888 257.136 62.552C255.184 64.184 252.448 65 248.928 65H233.232V31.304H248.4C251.824 31.304 254.496 32.088 256.416 33.656C258.368 35.224 259.344 37.352 259.344 40.04C259.344 42.024 258.816 43.672 257.76 44.984C256.736 46.296 255.36 47.208 253.632 47.72ZM241.44 44.936H246.816C248.16 44.936 249.184 44.648 249.888 44.072C250.624 43.464 250.992 42.584 250.992 41.432C250.992 40.28 250.624 39.4 249.888 38.792C249.184 38.184 248.16 37.88 246.816 37.88H241.44V44.936ZM247.488 58.376C248.864 58.376 249.92 58.072 250.656 57.464C251.424 56.824 251.808 55.912 251.808 54.728C251.808 53.544 251.408 52.616 250.608 51.944C249.84 51.272 248.768 50.936 247.392 50.936H241.44V58.376H247.488ZM274.281 58.664H285.033V65H266.073V31.304H274.281V58.664ZM306.084 65.336C302.916 65.336 300.004 64.6 297.348 63.128C294.724 61.656 292.628 59.608 291.06 56.984C289.524 54.328 288.756 51.352 288.756 48.056C288.756 44.76 289.524 41.8 291.06 39.176C292.628 36.552 294.724 34.504 297.348 33.032C300.004 31.56 302.916 30.824 306.084 30.824C309.252 30.824 312.148 31.56 314.772 33.032C317.428 34.504 319.508 36.552 321.012 39.176C322.548 41.8 323.316 44.76 323.316 48.056C323.316 51.352 322.548 54.328 321.012 56.984C319.476 59.608 317.396 61.656 314.772 63.128C312.148 64.6 309.252 65.336 306.084 65.336ZM306.084 57.848C308.772 57.848 310.916 56.952 312.516 55.16C314.148 53.368 314.964 51 314.964 48.056C314.964 45.08 314.148 42.712 312.516 40.952C310.916 39.16 308.772 38.264 306.084 38.264C303.364 38.264 301.188 39.144 299.556 40.904C297.956 42.664 297.156 45.048 297.156 48.056C297.156 51.032 297.956 53.416 299.556 55.208C301.188 56.968 303.364 57.848 306.084 57.848ZM351.45 41.96C350.842 40.84 349.962 39.992 348.81 39.416C347.69 38.808 346.362 38.504 344.826 38.504C342.17 38.504 340.042 39.384 338.442 41.144C336.842 42.872 336.042 45.192 336.042 48.104C336.042 51.208 336.874 53.64 338.538 55.4C340.234 57.128 342.554 57.992 345.498 57.992C347.514 57.992 349.21 57.48 350.586 56.456C351.994 55.432 353.018 53.96 353.658 52.04H343.242V45.992H361.098V53.624C360.49 55.672 359.45 57.576 357.978 59.336C356.538 61.096 354.698 62.52 352.458 63.608C350.218 64.696 347.69 65.24 344.874 65.24C341.546 65.24 338.57 64.52 335.946 63.08C333.354 61.608 331.322 59.576 329.85 56.984C328.41 54.392 327.69 51.432 327.69 48.104C327.69 44.776 328.41 41.816 329.85 39.224C331.322 36.6 333.354 34.568 335.946 33.128C338.538 31.656 341.498 30.92 344.826 30.92C348.858 30.92 352.25 31.896 355.002 33.848C357.786 35.8 359.626 38.504 360.522 41.96H351.45Z" fill="#A1ABBE"/>
</svg>
